<?xml version="1.0" encoding="UTF-8" standalone="no"?>
<svg
   xmlns:dc="http://purl.org/dc/elements/1.1/"
   xmlns:cc="http://creativecommons.org/ns#"
   xmlns:rdf="http://www.w3.org/1999/02/22-rdf-syntax-ns#"
   xmlns:svg="http://www.w3.org/2000/svg"
   xmlns="http://www.w3.org/2000/svg"
   xmlns:sodipodi="http://sodipodi.sourceforge.net/DTD/sodipodi-0.dtd"
   xmlns:inkscape="http://www.inkscape.org/namespaces/inkscape"
   viewBox="0 0 448 512"
   version="1.1"
   id="svg827"
   sodipodi:docname="facebook-square.svg"
   inkscape:version="0.92.4 (5da689c313, 2019-01-14)">
  <metadata
     id="metadata833">
    <rdf:RDF>
      <cc:Work
         rdf:about="">
        <dc:format>image/svg+xml</dc:format>
        <dc:type
           rdf:resource="http://purl.org/dc/dcmitype/StillImage" />
      </cc:Work>
    </rdf:RDF>
  </metadata>
  <defs
     id="defs831" />
  <sodipodi:namedview
     pagecolor="#ffffff"
     bordercolor="#666666"
     borderopacity="1"
     objecttolerance="10"
     gridtolerance="10"
     guidetolerance="10"
     inkscape:pageopacity="0"
     inkscape:pageshadow="2"
     inkscape:window-width="1366"
     inkscape:window-height="706"
     id="namedview829"
     showgrid="false"
     inkscape:zoom="0.40340805"
     inkscape:cx="176.62253"
     inkscape:cy="371.40472"
     inkscape:window-x="-8"
     inkscape:window-y="-8"
     inkscape:window-maximized="1"
     inkscape:current-layer="svg827" />
  <path
     d="M 449.16137,-8.9961994 H 40.979574 A 55.661155,55.661155 0 0 0 -14.681581,46.664957 V 454.84675 a 55.661155,55.661155 0 0 0 55.661155,55.66117 H 200.13569 V 333.88811 h -73.05527 v -83.13225 h 73.05527 V 187.3949 c 0,-72.06959 42.90548,-111.878906 108.62042,-111.878906 31.47175,0 64.3814,5.612489 64.3814,5.612489 V 151.86453 H 336.8766 c -35.72751,0 -46.87134,22.1717 -46.87134,44.9116 v 53.97973 h 79.7578 l -12.75568,83.13225 h -67.00212 v 176.61981 h 159.15611 a 55.661155,55.661155 0 0 0 55.66117,-55.66117 V 46.664957 A 55.661155,55.661155 0 0 0 449.16137,-8.9961994 Z"
     id="path825"
     inkscape:connector-curvature="0"
     style="fill:#ffffff;fill-opacity:1;stroke-width:1.15960741" />
</svg>
